<svg width="135" height="50" viewBox="0 0 135 50" fill="none" xmlns="http://www.w3.org/2000/svg">
<g clip-path="url(#clip0_143_651)">
<path d="M6.40251 41.6111V41.3333C6.59695 41.2778 6.70806 41.1944 6.7914 41.1389C6.84695 41.0833 6.90251 40.9722 6.90251 40.8055C6.90251 40.75 6.90251 40.6944 6.90251 40.6389C6.90251 40.5833 6.87473 40.5278 6.87473 40.5L3.87473 32.1389C3.76362 31.7778 3.62473 31.5555 3.51362 31.4166C3.40251 31.2778 3.20806 31.1944 2.98584 31.1111V30.8333H6.43028V31.0833C6.23584 31.1389 6.12473 31.2222 6.0414 31.2778C5.98584 31.3333 5.93028 31.4166 5.93028 31.5278C5.93028 31.5555 5.93028 31.6111 5.95806 31.6666C5.98584 31.7222 6.01362 31.8055 6.0414 31.8889L8.15251 38.3333L10.2358 31.8889C10.2358 31.8611 10.2636 31.8055 10.2636 31.75C10.2636 31.6944 10.2636 31.6389 10.2636 31.5833C10.2636 31.4444 10.2358 31.3333 10.1803 31.2778C10.1247 31.2222 9.98584 31.1389 9.7914 31.0833V30.8333H13.5136V31.0833C13.3192 31.1389 13.2081 31.2222 13.1247 31.2778C13.0692 31.3333 13.0136 31.4166 13.0136 31.5278C13.0136 31.5555 13.0136 31.6111 13.0414 31.6666C13.0692 31.7222 13.097 31.8055 13.1247 31.8889L15.2081 38.1666L17.2636 31.8889C17.2636 31.8611 17.2914 31.8055 17.2914 31.75C17.2914 31.6944 17.2914 31.6389 17.2914 31.5833C17.2914 31.4444 17.2636 31.3333 17.2081 31.2778C17.1525 31.2222 17.0136 31.1389 16.8192 31.0833V30.8333H20.1525V31.0833C19.9025 31.1666 19.7358 31.2778 19.6247 31.3889C19.5136 31.5278 19.4025 31.75 19.2636 32.1111L16.347 40.4722C16.347 40.5 16.3192 40.5555 16.3192 40.6111C16.3192 40.6666 16.3192 40.7222 16.3192 40.7778C16.3192 40.9444 16.347 41.0278 16.4025 41.1111C16.4581 41.1666 16.597 41.25 16.7914 41.3055V41.5833H13.4858V41.3055C13.6803 41.25 13.8192 41.1666 13.8747 41.1111C13.9303 41.0278 13.9858 40.9444 13.9858 40.7778C13.9858 40.75 13.9858 40.6944 13.9581 40.6389C13.9581 40.5833 13.9303 40.5278 13.9025 40.4722L11.597 33.3611L9.26362 40.4444C9.26362 40.4722 9.23584 40.5278 9.23584 40.5833C9.23584 40.6389 9.23584 40.6944 9.23584 40.75C9.23584 40.8889 9.26362 41 9.31917 41.0833C9.37473 41.1389 9.51362 41.2222 9.70806 41.3055V41.5833L6.40251 41.6111Z" fill="#585858"/>
<path d="M21.6523 40.9445L22.5412 38.75L22.819 38.8889C22.819 38.8889 22.819 38.9167 22.7912 38.9445C22.7912 39 22.7635 39.0556 22.7635 39.0556C22.7635 39.2778 23.0968 39.5278 23.7635 39.7778C24.4301 40.0278 25.0968 40.1667 25.7912 40.1667C26.4857 40.1667 27.069 40.0556 27.4857 39.8611C27.9023 39.6667 28.0968 39.3889 28.0968 39.0278C28.0968 38.5278 27.4023 38.25 25.9857 38.1667C25.4301 38.1389 24.9857 38.1112 24.6523 38.0834C23.6801 38 22.9579 37.75 22.4857 37.3334C22.0135 36.9167 21.7635 36.3334 21.7635 35.5834C21.7635 34.6945 22.1246 33.9445 22.819 33.4167C23.5135 32.8889 24.4857 32.5834 25.6523 32.5834C26.4579 32.5834 27.2635 32.75 28.069 33.0834C28.2079 33.1389 28.2912 33.1667 28.319 33.1667C28.4023 33.1667 28.569 33.2223 28.7912 33.3612C29.0412 33.5 29.2079 33.5556 29.3468 33.5556C29.3746 33.5556 29.4023 33.5278 29.4579 33.5C29.5135 33.4723 29.569 33.4445 29.6246 33.3889L29.8468 33.5L28.8468 35.7223L28.569 35.5556C28.569 35.5556 28.569 35.5278 28.5968 35.5278C28.5968 35.5278 28.5968 35.5 28.5968 35.4445C28.5968 35.1945 28.2912 34.9167 27.6523 34.6112C27.0135 34.3056 26.3746 34.1667 25.7079 34.1667C25.0968 34.1667 24.5968 34.25 24.2079 34.4445C23.819 34.6389 23.6246 34.8612 23.6246 35.1389C23.6246 35.5834 24.1801 35.8334 25.2635 35.8889C26.0968 35.9445 26.7635 36 27.2912 36.1112C28.1801 36.2778 28.8746 36.5834 29.319 37.0278C29.7635 37.4723 29.9857 38.0278 29.9857 38.7223C29.9857 39.6111 29.5968 40.3334 28.819 40.8889C28.0412 41.4445 27.0412 41.7223 25.7912 41.7223C24.6246 41.7223 23.4857 41.4723 22.4301 40.9445C22.2357 40.8334 22.0968 40.8056 22.069 40.8056C22.0135 40.8056 21.9579 40.8334 21.9301 40.8334C21.9023 40.8611 21.8746 40.8889 21.8468 40.9445H21.6523Z" fill="#585858"/>
<path d="M42.0137 37.8889L42.2082 37.75L43.5971 40.0555L43.3748 40.1944C43.2915 40.1389 43.2359 40.0833 43.2082 40.0555C43.1804 40.0278 43.1248 40.0278 43.0971 40.0278C43.0137 40.0278 42.8193 40.1389 42.4859 40.3611C40.9582 41.3333 39.4859 41.8055 38.0693 41.8055C36.4026 41.8055 35.0137 41.2778 33.9304 40.2222C32.8193 39.1666 32.2915 37.8333 32.2915 36.2222C32.2915 34.5833 32.8471 33.25 33.9582 32.1944C35.0693 31.1389 36.5415 30.6111 38.3193 30.6111C39.2359 30.6111 40.1526 30.7778 41.0971 31.0833C42.0415 31.4166 42.5137 31.5555 42.5693 31.5555C42.6526 31.5555 42.7359 31.5278 42.8193 31.5278C42.9026 31.5278 42.9859 31.5 43.0971 31.5L43.2915 31.6389L41.8748 34.0833L41.6526 33.9444C41.6526 33.9444 41.6526 33.9166 41.6804 33.9166C41.6804 33.9166 41.6804 33.8889 41.6804 33.8611C41.6804 33.5555 41.3193 33.25 40.5693 32.9166C39.8471 32.5833 39.0693 32.4444 38.2359 32.4444C37.1248 32.4444 36.2082 32.7778 35.4859 33.4722C34.7637 34.1666 34.4026 35.0278 34.4026 36.0833C34.4026 37.1944 34.7637 38.1111 35.4859 38.7778C36.2082 39.4722 37.1526 39.8055 38.2915 39.8055C39.1526 39.8055 39.9859 39.6111 40.7915 39.2222C41.6248 38.8333 42.0415 38.5 42.0415 38.25C42.0415 38.1944 42.0415 38.1389 42.0137 38.0833C42.0415 38.0278 42.0415 37.9444 42.0137 37.8889Z" fill="#585858"/>
<path d="M52.7637 33.6111C52.7637 33.4166 52.7359 33.2777 52.6803 33.1944C52.6248 33.1111 52.4859 33.0555 52.3192 33.0277V32.75H55.2359V33.0277C55.0692 33.0555 54.9303 33.1111 54.8748 33.1944C54.8192 33.2777 54.7914 33.4166 54.7637 33.6111L54.7359 38.2778C54.7359 39.5555 54.4026 40.4444 53.7637 40.9722C53.1248 41.5 52.0137 41.75 50.4859 41.75C48.9859 41.75 47.9026 41.4722 47.2359 40.9444C46.597 40.4166 46.2637 39.5278 46.2637 38.25V33.6111C46.2637 33.4166 46.2359 33.2777 46.1526 33.1944C46.097 33.1111 45.9581 33.0555 45.7637 33.0277V32.75H48.6803V33.0277C48.5137 33.0555 48.3748 33.1389 48.3192 33.1944C48.2637 33.2777 48.2359 33.4166 48.2359 33.6111V37.8889C48.2359 38.6666 48.4026 39.2222 48.7637 39.5555C49.1248 39.8889 49.6803 40.0555 50.4859 40.0555C51.2914 40.0555 51.8748 39.8889 52.2081 39.5278C52.5414 39.1666 52.7359 38.5833 52.7359 37.7778V33.6111H52.7637Z" fill="#585858"/>
<path d="M63.9858 32.75C64.9303 32.75 65.6803 32.9444 66.2081 33.3611C66.7358 33.7777 66.9858 34.3333 66.9858 35.0277C66.9858 35.4166 66.9025 35.7778 66.7081 36.0555C66.5136 36.3333 66.2358 36.6111 65.847 36.8333C66.3192 37.0833 66.6803 37.3889 66.9025 37.75C67.1247 38.1111 67.2358 38.5278 67.2358 39C67.2358 39.8055 66.9303 40.4444 66.347 40.8889C65.7358 41.3333 64.9025 41.5555 63.7914 41.5555H58.2358V41.2778C58.4025 41.25 58.5414 41.1666 58.597 41.1111C58.6525 41.0278 58.6803 40.8889 58.6803 40.6944V33.6111C58.6803 33.4166 58.6525 33.2777 58.597 33.1944C58.5414 33.1111 58.4025 33.0555 58.2358 33.0277V32.75H63.9858ZM63.4025 34.3055H60.7081V36.1389H63.6247C64.1247 36.1389 64.5136 36.0555 64.7358 35.9166C64.9858 35.7778 65.097 35.5278 65.097 35.2222C65.097 34.8889 64.9581 34.6666 64.7081 34.5277C64.4581 34.3611 64.0136 34.3055 63.4025 34.3055ZM63.2358 37.6666H60.6803V40.0555H63.1803C64.0136 40.0555 64.5692 39.9722 64.9025 39.7778C65.2358 39.5833 65.3747 39.2778 65.3747 38.8333C65.3747 38.4166 65.2081 38.1111 64.8747 37.9166C64.5414 37.75 63.9858 37.6666 63.2358 37.6666Z" fill="#585858"/>
<path d="M77.6802 32.75C77.8746 32.75 78.0135 32.7222 78.0691 32.6667C78.1246 32.6111 78.1802 32.4722 78.2358 32.2778H78.4858V35.0278H78.2358C78.208 34.8333 78.1524 34.6944 78.0691 34.6389C77.9858 34.5833 77.8746 34.5278 77.6802 34.5278H72.6524V36.3056H75.7358C75.9302 36.3056 76.0691 36.2778 76.1246 36.2222C76.1802 36.1667 76.2358 36.0278 76.2913 35.8333H76.5413V38.3611H76.2913C76.2635 38.1667 76.208 38.0278 76.1246 37.9722C76.0413 37.9167 75.9302 37.8611 75.7358 37.8611H72.6524V39.8611H77.8746C78.0691 39.8611 78.208 39.8333 78.2635 39.7778C78.3191 39.7222 78.3747 39.5833 78.4302 39.3889H78.6802V42.1389H78.4302C78.4024 41.9444 78.3469 41.8056 78.2635 41.7222C78.1802 41.6389 78.0691 41.6111 77.8746 41.6111H70.1802V41.3333C70.3746 41.3056 70.4857 41.2222 70.5691 41.1389C70.6246 41.0556 70.6802 40.9167 70.6802 40.7222V33.6111C70.6802 33.4167 70.6524 33.2778 70.5691 33.1944C70.5135 33.1111 70.3746 33.0556 70.1802 33.0278V32.75H77.6802Z" fill="#585858"/>
<path d="M87.7914 32.75C87.5969 32.75 87.4581 32.7778 87.4025 32.8333C87.3469 32.8889 87.2914 33.0278 87.2358 33.2222H86.9858V30.3055H87.2358C87.2914 30.5 87.3469 30.6389 87.4025 30.7222C87.4858 30.8055 87.5969 30.8333 87.7914 30.8333H96.1525C96.3469 30.8333 96.4858 30.8055 96.5414 30.7222C96.5969 30.6667 96.6525 30.5278 96.708 30.3055H96.958V33.2222H96.708C96.6803 33.0278 96.6247 32.8889 96.5414 32.8055C96.458 32.7222 96.3469 32.6944 96.1525 32.6944H93.0414V40.6944C93.0414 40.8889 93.0692 41.0278 93.1247 41.1111C93.1803 41.1944 93.3192 41.25 93.4858 41.2778V41.5555H90.4025V41.2778C90.5969 41.2222 90.7081 41.1667 90.7636 41.0833C90.8192 41 90.8469 40.8611 90.8747 40.6667V32.6667H87.7914V32.75Z" fill="#0095DA"/>
<path d="M106.486 32.75C106.68 32.75 106.819 32.7222 106.875 32.6667C106.93 32.6111 106.986 32.4722 107.041 32.2778H107.291V35.0278H107.041C107.014 34.8333 106.958 34.6944 106.875 34.6389C106.791 34.5833 106.68 34.5278 106.486 34.5278H101.458V36.3056H104.541C104.736 36.3056 104.875 36.2778 104.93 36.2222C104.986 36.1667 105.041 36.0278 105.097 35.8333H105.347V38.3611H105.097C105.069 38.1667 105.014 38.0278 104.93 37.9722C104.847 37.9167 104.736 37.8611 104.541 37.8611H101.458V39.8611H106.68C106.875 39.8611 107.014 39.8333 107.069 39.7778C107.125 39.7222 107.18 39.5833 107.236 39.3889H107.486V42.1389H107.236C107.208 41.9444 107.152 41.8056 107.069 41.7222C106.986 41.6389 106.875 41.6111 106.68 41.6111H98.9858V41.3333C99.1803 41.3056 99.2914 41.2222 99.3747 41.1389C99.4303 41.0556 99.4858 40.9167 99.4858 40.7222V33.6111C99.4858 33.4167 99.4581 33.2778 99.3747 33.1944C99.3192 33.1111 99.1803 33.0556 98.9858 33.0278V32.75H106.486Z" fill="#0095DA"/>
<path d="M117.902 35.5277L117.708 35.4166V35.3888C117.708 35.3888 117.708 35.361 117.708 35.3333C117.708 35.111 117.402 34.861 116.819 34.611C116.236 34.361 115.625 34.2222 114.986 34.2222C114.069 34.2222 113.347 34.4999 112.791 35.0277C112.236 35.5833 111.958 36.2777 111.958 37.1666C111.958 38.0277 112.236 38.7499 112.791 39.2777C113.347 39.8055 114.097 40.0555 115.013 40.0555C115.708 40.0555 116.402 39.8888 117.041 39.5833C117.68 39.2777 118.013 38.9999 118.013 38.8055C118.013 38.8055 118.013 38.7499 117.986 38.6944C117.986 38.6388 117.958 38.5833 117.958 38.5277L118.18 38.4166L119.43 40.361L119.236 40.4722C119.18 40.4166 119.125 40.3888 119.097 40.3888C119.069 40.361 119.041 40.361 119.013 40.361C118.958 40.361 118.763 40.4444 118.458 40.6388C117.18 41.4166 115.958 41.8055 114.763 41.8055C113.375 41.8055 112.208 41.361 111.291 40.4722C110.375 39.5833 109.902 38.4999 109.902 37.1666C109.902 35.8055 110.375 34.6944 111.319 33.8333C112.263 32.9722 113.486 32.5277 114.986 32.5277C115.736 32.5277 116.513 32.6666 117.319 32.9166C118.097 33.1944 118.541 33.3055 118.597 33.3055C118.652 33.3055 118.736 33.3055 118.791 33.2777C118.847 33.2777 118.93 33.2499 119.013 33.2222L119.236 33.3333L117.902 35.5277Z" fill="#0095DA"/>
<path d="M123.847 40.75C123.847 40.9444 123.875 41.0833 123.958 41.1666C124.014 41.25 124.152 41.3055 124.347 41.3333V41.6111H121.43V41.3333C121.597 41.3055 121.736 41.2222 121.791 41.1666C121.847 41.1111 121.875 40.9444 121.875 40.75V33.6111C121.875 33.4166 121.847 33.2777 121.791 33.1944C121.736 33.1111 121.597 33.0555 121.43 33.0277V32.75H124.347V33.0277C124.152 33.0555 124.041 33.1389 123.958 33.1944C123.902 33.2777 123.847 33.4166 123.847 33.6111V36H128.43V33.6111C128.43 33.4166 128.402 33.2777 128.319 33.1944C128.264 33.1111 128.125 33.0555 127.93 33.0277V32.75H130.875V33.0277C130.68 33.0555 130.569 33.1389 130.514 33.1944C130.458 33.2777 130.43 33.4166 130.43 33.6111V40.7222C130.43 40.9166 130.458 41.0555 130.514 41.1389C130.569 41.2222 130.708 41.2777 130.875 41.3055V41.5833H127.958V41.3055C128.152 41.2777 128.291 41.1944 128.347 41.1389C128.402 41.0555 128.458 40.9166 128.458 40.7222V37.7222H123.875L123.847 40.75Z" fill="#0095DA"/>
<path d="M72.68 47.6667C72.68 47.8611 72.6522 48.0278 72.5689 48.1944C72.4856 48.3611 72.4022 48.4722 72.2633 48.5833C72.1244 48.6944 71.9856 48.7778 71.8189 48.8333C71.6522 48.8889 71.4578 48.9167 71.2633 48.9167C71.1245 48.9167 70.9856 48.9167 70.8745 48.8889C70.7633 48.8611 70.6522 48.8333 70.5411 48.8055C70.4578 48.7778 70.3745 48.7222 70.3189 48.6944C70.2633 48.6667 70.2078 48.6389 70.18 48.6111C70.1522 48.5833 70.1245 48.5555 70.1245 48.5C70.1245 48.4722 70.0967 48.4167 70.0967 48.3333C70.0967 48.2778 70.0967 48.25 70.0967 48.2222C70.0967 48.1944 70.0967 48.1667 70.1245 48.1389C70.1245 48.1111 70.1522 48.1111 70.1522 48.1111C70.1522 48.1111 70.18 48.1111 70.2078 48.1111C70.2356 48.1111 70.2911 48.1389 70.3467 48.1666C70.4022 48.1944 70.4856 48.25 70.5689 48.2778C70.6522 48.3333 70.7633 48.3611 70.8745 48.3889C70.9856 48.4166 71.1245 48.4444 71.2911 48.4444C71.4022 48.4444 71.5133 48.4166 71.6244 48.3889C71.7356 48.3611 71.8189 48.3055 71.8745 48.25C71.9578 48.1944 72.0133 48.1111 72.0411 48.0278C72.0689 47.9444 72.0967 47.8333 72.0967 47.7222C72.0967 47.6111 72.0689 47.5 72.0133 47.4166C71.9578 47.3333 71.9022 47.25 71.7911 47.1944C71.7078 47.1389 71.5967 47.0833 71.4856 47.0278C71.3745 46.9722 71.2633 46.9166 71.1522 46.8611C71.0411 46.8055 70.93 46.75 70.8189 46.6666C70.7078 46.6111 70.5967 46.5278 70.5133 46.4444C70.43 46.3611 70.3467 46.25 70.2911 46.1389C70.2356 46.0278 70.2078 45.8611 70.2078 45.6944C70.2078 45.5278 70.2356 45.3611 70.2911 45.2222C70.3467 45.0833 70.43 44.9722 70.5689 44.8889C70.68 44.8055 70.8189 44.7222 70.9578 44.6666C71.1245 44.6111 71.2911 44.5833 71.4578 44.5833C71.5411 44.5833 71.6522 44.5833 71.7356 44.6111C71.8189 44.6389 71.93 44.6389 72.0133 44.6666C72.0967 44.6944 72.18 44.7222 72.2356 44.75C72.2911 44.7778 72.3467 44.8055 72.3744 44.8333C72.4022 44.8611 72.4022 44.8611 72.4022 44.8889C72.4022 44.8889 72.4022 44.9166 72.43 44.9444C72.43 44.9722 72.43 44.9722 72.43 45C72.43 45.0278 72.43 45.0555 72.43 45.1111C72.43 45.1389 72.43 45.1944 72.43 45.2222C72.43 45.25 72.43 45.2778 72.4022 45.3055C72.4022 45.3333 72.3744 45.3333 72.3744 45.3611L72.3467 45.3889C72.3189 45.3889 72.2911 45.3611 72.2356 45.3333C72.18 45.3055 72.1245 45.2778 72.0411 45.2222C71.9578 45.1944 71.8744 45.1389 71.7911 45.1111C71.68 45.0833 71.5689 45.0555 71.4578 45.0555C71.3467 45.0555 71.2356 45.0833 71.1522 45.1111C71.0689 45.1389 70.9856 45.1944 70.93 45.2222C70.8745 45.2778 70.8189 45.3333 70.7911 45.4166C70.7633 45.5 70.7356 45.5555 70.7356 45.6389C70.7356 45.75 70.7633 45.8611 70.8189 45.9444C70.8745 46.0278 70.9578 46.1111 71.0411 46.1666C71.1245 46.2222 71.2356 46.2778 71.3467 46.3333C71.4578 46.3889 71.5689 46.4444 71.7078 46.5C71.8189 46.5555 71.93 46.6111 72.0689 46.6666C72.18 46.7222 72.2911 46.8055 72.3744 46.8889C72.4578 46.9722 72.5411 47.0833 72.5967 47.1944C72.6522 47.3333 72.68 47.5 72.68 47.6667Z" fill="#585858"/>
<path d="M74.6524 48.8333L74.2635 49.8889C74.2635 49.9167 74.208 49.9444 74.1524 49.9722C74.0968 50 74.0135 50 73.9024 50C73.8468 50 73.7913 50 73.7635 50C73.7357 50 73.708 49.9722 73.6802 49.9722C73.6524 49.9722 73.6524 49.9444 73.6524 49.9167C73.6524 49.8889 73.6524 49.8611 73.6802 49.8333L74.0691 48.8333C74.0413 48.8333 74.0413 48.8056 74.0135 48.7778C73.9857 48.75 73.9857 48.75 73.9857 48.7222L72.958 45.9444C72.9302 45.8889 72.9302 45.8611 72.9302 45.8333C72.9302 45.8056 72.9302 45.7778 72.958 45.7778C72.9857 45.75 73.0135 45.75 73.0413 45.75C73.0691 45.75 73.1246 45.75 73.208 45.75C73.2913 45.75 73.3191 45.75 73.3468 45.75C73.3746 45.75 73.4024 45.75 73.4302 45.7778C73.458 45.8056 73.458 45.8056 73.4857 45.8056C73.4857 45.8333 73.5135 45.8333 73.5135 45.8611L74.3468 48.1944L75.1524 45.8611C75.1524 45.8333 75.1802 45.8056 75.208 45.7778C75.2357 45.7778 75.2635 45.75 75.2913 45.75C75.3191 45.75 75.3746 45.75 75.458 45.75C75.5135 45.75 75.5691 45.75 75.5968 45.75C75.6246 45.75 75.6524 45.7778 75.6802 45.7778C75.708 45.8056 75.708 45.8056 75.708 45.8333C75.708 45.8611 75.708 45.8889 75.6802 45.9167L74.6524 48.8333Z" fill="#585858"/>
<path d="M78.0687 47.9445C78.0687 48.0834 78.0409 48.2222 77.9854 48.3334C77.9298 48.4445 77.8465 48.5556 77.7631 48.6389C77.6798 48.7222 77.5409 48.7778 77.402 48.8056C77.2631 48.8334 77.0965 48.8611 76.9298 48.8611C76.8187 48.8611 76.7354 48.8611 76.6242 48.8334C76.5409 48.8056 76.4576 48.8056 76.3742 48.7778C76.2909 48.75 76.2354 48.7222 76.1798 48.6945C76.1242 48.6667 76.0965 48.6389 76.0687 48.6111C76.0409 48.5834 76.0409 48.5556 76.0131 48.5278C76.0131 48.5 75.9854 48.4445 75.9854 48.3611C75.9854 48.3334 75.9854 48.2778 75.9854 48.25C75.9854 48.2222 75.9854 48.1945 76.0131 48.1945C76.0131 48.1667 76.0409 48.1667 76.0409 48.1667H76.0687C76.0965 48.1667 76.1242 48.1945 76.1798 48.2222C76.2354 48.25 76.2909 48.2778 76.3465 48.3056C76.402 48.3334 76.4854 48.3611 76.5965 48.3889C76.6798 48.4167 76.7909 48.4445 76.902 48.4445C76.9854 48.4445 77.0687 48.4445 77.152 48.4167C77.2354 48.3889 77.2909 48.3611 77.3465 48.3334C77.402 48.3056 77.4298 48.25 77.4576 48.1945C77.4854 48.1389 77.5131 48.0556 77.5131 48C77.5131 47.9167 77.4854 47.8611 77.4576 47.8056C77.4298 47.75 77.3742 47.6945 77.2909 47.6667C77.2076 47.6389 77.152 47.5834 77.0687 47.5556C76.9854 47.5278 76.902 47.5 76.7909 47.4445C76.7076 47.4167 76.6242 47.3611 76.5131 47.3334C76.4298 47.2778 76.3465 47.2222 76.2909 47.1667C76.2354 47.1111 76.1798 47.0278 76.1242 46.9167C76.0687 46.8333 76.0687 46.7222 76.0687 46.5833C76.0687 46.4722 76.0965 46.3611 76.1242 46.25C76.1798 46.1389 76.2354 46.0556 76.3187 45.9722C76.402 45.8889 76.5131 45.8333 76.652 45.7778C76.7909 45.7222 76.9298 45.6945 77.1242 45.6945C77.2076 45.6945 77.2909 45.6945 77.3465 45.7222C77.4298 45.7222 77.4854 45.75 77.5687 45.7778C77.6242 45.8056 77.6798 45.8056 77.7354 45.8333C77.7909 45.8611 77.8187 45.8889 77.8465 45.8889C77.8742 45.9167 77.8742 45.9167 77.902 45.9445C77.902 45.9445 77.902 45.9722 77.9298 46C77.9298 46.0278 77.9298 46.0278 77.9298 46.0556C77.9298 46.0833 77.9298 46.1111 77.9298 46.1389C77.9298 46.1667 77.9298 46.1945 77.9298 46.2222C77.9298 46.25 77.9298 46.2778 77.902 46.2778C77.902 46.3056 77.8742 46.3056 77.8742 46.3056H77.8465C77.8187 46.3056 77.7909 46.3056 77.7631 46.2778C77.7354 46.25 77.6798 46.2222 77.6242 46.1945C77.5687 46.1667 77.4854 46.1389 77.4298 46.1111C77.3465 46.0833 77.2631 46.0833 77.152 46.0833C77.0687 46.0833 76.9854 46.0833 76.902 46.1111C76.8465 46.1389 76.7631 46.1667 76.7354 46.1945C76.6798 46.2222 76.652 46.2778 76.6242 46.3333C76.5965 46.3889 76.5965 46.4445 76.5965 46.5C76.5965 46.5833 76.6242 46.6667 76.652 46.7222C76.7076 46.7778 76.7631 46.8333 76.8187 46.8611C76.8742 46.9167 76.9576 46.9445 77.0409 46.9722C77.1242 47 77.2076 47.0556 77.3187 47.0834C77.402 47.1111 77.5131 47.1667 77.5965 47.1945C77.6798 47.25 77.7631 47.3056 77.8465 47.3611C77.902 47.4167 77.9576 47.5 78.0131 47.5834C78.0409 47.7222 78.0687 47.8334 78.0687 47.9445Z" fill="#585858"/>
<path d="M80.2634 48.5278C80.2634 48.5833 80.2634 48.6389 80.2634 48.6667C80.2634 48.6945 80.2356 48.7222 80.2356 48.75C80.2356 48.7778 80.1801 48.7778 80.1523 48.8056C80.1245 48.8333 80.069 48.8333 80.0412 48.8333C79.9856 48.8333 79.9578 48.8611 79.9023 48.8611C79.8467 48.8611 79.7912 48.8611 79.7634 48.8611C79.6245 48.8611 79.4856 48.8333 79.3745 48.8056C79.2634 48.7778 79.1801 48.6945 79.0967 48.6389C79.0412 48.5556 78.9856 48.4445 78.9578 48.3333C78.9301 48.2222 78.9023 48.0556 78.9023 47.8889V46.1945H78.4856C78.4578 46.1945 78.4301 46.1667 78.4023 46.1389C78.3745 46.1111 78.3745 46.0556 78.3745 45.9722C78.3745 45.9445 78.3745 45.8889 78.3745 45.8611C78.3745 45.8333 78.3745 45.8056 78.4023 45.8056C78.4023 45.7778 78.4301 45.7778 78.4301 45.7778C78.4301 45.7778 78.4578 45.7778 78.4856 45.7778H78.9023V45.0833C78.9023 45.0556 78.9023 45.0556 78.9023 45.0278C78.9023 45.0278 78.9301 45 78.9578 45C78.9856 45 79.0134 44.9722 79.0412 44.9722C79.069 44.9722 79.1245 44.9722 79.1801 44.9722C79.2356 44.9722 79.2912 44.9722 79.319 44.9722C79.3467 44.9722 79.3745 44.9722 79.4023 45C79.4301 45 79.4301 45.0278 79.4578 45.0278C79.4578 45.0278 79.4578 45.0556 79.4578 45.0833V45.7778H80.2078C80.2356 45.7778 80.2356 45.7778 80.2634 45.7778L80.2912 45.8056C80.2912 45.8333 80.319 45.8333 80.319 45.8611C80.319 45.8889 80.319 45.9167 80.319 45.9722C80.319 46.0556 80.319 46.1111 80.2912 46.1389C80.2634 46.1667 80.2356 46.1945 80.2078 46.1945H79.4578V47.8056C79.4578 48 79.4856 48.1667 79.5412 48.25C79.5967 48.3611 79.7078 48.4167 79.8467 48.4167C79.9023 48.4167 79.9301 48.4167 79.9856 48.3889C80.0134 48.3889 80.069 48.3611 80.0967 48.3611C80.1245 48.3611 80.1523 48.3333 80.1801 48.3333C80.2078 48.3333 80.2078 48.3056 80.2356 48.3056H80.2634L80.2912 48.3333C80.2912 48.3611 80.2912 48.3611 80.319 48.3889C80.2634 48.4722 80.2634 48.5 80.2634 48.5278Z" fill="#585858"/>
<path d="M83.3747 47.1667C83.3747 47.25 83.3469 47.3056 83.3191 47.3333C83.2636 47.3611 83.2358 47.3889 83.1802 47.3889H81.2636C81.2636 47.5556 81.2913 47.6945 81.3191 47.8333C81.3469 47.9722 81.4025 48.0833 81.4858 48.1667C81.5691 48.25 81.6525 48.3334 81.7913 48.3889C81.9025 48.4445 82.0691 48.4722 82.2358 48.4722C82.3747 48.4722 82.4858 48.4722 82.5969 48.4445C82.708 48.4167 82.7913 48.3889 82.8747 48.3611C82.958 48.3334 83.0136 48.3056 83.0691 48.2778C83.1247 48.25 83.1525 48.25 83.1802 48.25C83.208 48.25 83.208 48.25 83.208 48.25L83.2358 48.2778C83.2358 48.3056 83.2358 48.3056 83.2636 48.3334C83.2636 48.3611 83.2636 48.3889 83.2636 48.4445C83.2636 48.4722 83.2636 48.5 83.2636 48.5278C83.2636 48.5556 83.2636 48.5556 83.2636 48.5834C83.2636 48.6111 83.2636 48.6111 83.2358 48.6389L83.208 48.6667C83.208 48.6667 83.1525 48.6945 83.0969 48.7222C83.0413 48.75 82.958 48.7778 82.8747 48.8056C82.7913 48.8334 82.6802 48.8611 82.5413 48.8611C82.4302 48.8889 82.2913 48.8889 82.1525 48.8889C81.9025 48.8889 81.708 48.8611 81.5136 48.7778C81.3469 48.7222 81.1802 48.6111 81.0691 48.4722C80.958 48.3334 80.8469 48.1667 80.7913 47.9722C80.7358 47.7778 80.708 47.5556 80.708 47.2778C80.708 47.0278 80.7358 46.8056 80.7913 46.6111C80.8469 46.4167 80.958 46.25 81.0691 46.1111C81.1802 45.9722 81.3469 45.8611 81.5136 45.8056C81.6802 45.7222 81.8747 45.6945 82.0969 45.6945C82.3191 45.6945 82.5136 45.7222 82.6802 45.8056C82.8469 45.8889 82.9858 45.9722 83.0691 46.1111C83.1525 46.25 83.2358 46.3889 83.2913 46.5556C83.3469 46.7222 83.3747 46.8889 83.3747 47.0833V47.1667ZM82.8469 47C82.8469 46.7222 82.7913 46.5 82.6525 46.3333C82.5136 46.1667 82.3191 46.0833 82.0691 46.0833C81.9302 46.0833 81.8191 46.1111 81.708 46.1667C81.5969 46.2222 81.5136 46.2778 81.458 46.3611C81.4025 46.4445 81.3469 46.5278 81.2913 46.6389C81.2636 46.75 81.2358 46.8611 81.2358 46.9722L82.8469 47Z" fill="#585858"/>
<path d="M88.4857 48.75C88.4857 48.7777 88.4857 48.7777 88.4857 48.8055C88.4857 48.8055 88.458 48.8333 88.4302 48.8333C88.4024 48.8333 88.3746 48.8611 88.3468 48.8611C88.3191 48.8611 88.2635 48.8611 88.2079 48.8611C88.1524 48.8611 88.0968 48.8611 88.0691 48.8611C88.0413 48.8611 88.0135 48.8611 87.9857 48.8333C87.958 48.8333 87.9579 48.8055 87.9302 48.8055C87.9302 48.8055 87.9302 48.7777 87.9302 48.75V46.9722C87.9302 46.8611 87.9302 46.75 87.9024 46.6389C87.8746 46.5277 87.8468 46.4444 87.7913 46.3889C87.7357 46.3333 87.6802 46.25 87.6246 46.2222C87.5413 46.1944 87.4579 46.1666 87.3746 46.1666C87.2635 46.1666 87.1246 46.2222 87.0135 46.3055C86.9024 46.3889 86.7635 46.5277 86.5968 46.7222V48.75C86.5968 48.7777 86.5968 48.7777 86.5968 48.8055C86.5968 48.8055 86.5691 48.8333 86.5413 48.8333C86.5135 48.8333 86.4857 48.8611 86.458 48.8611C86.4302 48.8611 86.3746 48.8611 86.3191 48.8611C86.2635 48.8611 86.2357 48.8611 86.1802 48.8611C86.1524 48.8611 86.1246 48.8611 86.0968 48.8333C86.0691 48.8333 86.0691 48.8055 86.0691 48.8055C86.0691 48.8055 86.0691 48.7777 86.0691 48.75V46.9722C86.0691 46.8611 86.0691 46.75 86.0413 46.6389C86.0135 46.5277 85.9857 46.4444 85.9302 46.3889C85.8746 46.3055 85.8191 46.25 85.7635 46.2222C85.6802 46.1944 85.5968 46.1666 85.5135 46.1666C85.4024 46.1666 85.2635 46.2222 85.1524 46.3055C85.0413 46.3889 84.9024 46.5277 84.7357 46.7222V48.75C84.7357 48.7777 84.7357 48.7777 84.7357 48.8055C84.7357 48.8055 84.708 48.8333 84.6802 48.8333C84.6524 48.8333 84.6246 48.8611 84.5968 48.8611C84.5691 48.8611 84.5135 48.8611 84.458 48.8611C84.4024 48.8611 84.3746 48.8611 84.3191 48.8611C84.2635 48.8611 84.2635 48.8611 84.2357 48.8333C84.208 48.8333 84.208 48.8055 84.1802 48.8055C84.1802 48.8055 84.1802 48.7777 84.1802 48.75V45.8333C84.1802 45.8055 84.1802 45.8055 84.1802 45.7777L84.208 45.75C84.2357 45.75 84.2635 45.7222 84.2913 45.7222C84.3191 45.7222 84.3746 45.7222 84.4024 45.7222C84.458 45.7222 84.4857 45.7222 84.5135 45.7222C84.5413 45.7222 84.5691 45.7222 84.5968 45.75C84.6246 45.75 84.6246 45.7777 84.6246 45.7777C84.6246 45.7777 84.6246 45.8055 84.6246 45.8333V46.2222C84.7913 46.0277 84.958 45.9166 85.0968 45.8333C85.2635 45.75 85.4024 45.6944 85.5691 45.6944C85.6802 45.6944 85.7913 45.7222 85.9024 45.75C85.9857 45.7777 86.0691 45.8055 86.1524 45.8611C86.2357 45.9166 86.2913 45.9722 86.3468 46.0277C86.4024 46.1111 86.4302 46.1666 86.4857 46.25C86.5691 46.1389 86.6802 46.0555 86.7635 45.9722C86.8468 45.8889 86.9302 45.8333 87.0135 45.8055C87.0968 45.75 87.1802 45.7222 87.2357 45.6944C87.3191 45.6666 87.4024 45.6666 87.458 45.6666C87.6524 45.6666 87.7913 45.6944 87.9302 45.7777C88.0691 45.8333 88.1524 45.9444 88.2357 46.0277C88.3191 46.1388 88.3746 46.2777 88.4024 46.4166C88.4302 46.5555 88.4579 46.7222 88.4579 46.8889L88.4857 48.75Z" fill="#585858"/>
<path d="M93.2076 44.8889C93.2076 44.9167 93.2076 44.9722 93.2076 45C93.2076 45.0278 93.2076 45.0556 93.1798 45.0833C93.1798 45.1111 93.1521 45.1111 93.1521 45.1111C93.1521 45.1111 93.1243 45.1111 93.0965 45.1111H91.5687V46.5278H93.0132C93.041 46.5278 93.0409 46.5278 93.0687 46.5278C93.0965 46.5278 93.0965 46.5556 93.0965 46.5556C93.0965 46.5556 93.1243 46.5833 93.1243 46.6389C93.1243 46.6667 93.1243 46.6945 93.1243 46.75C93.1243 46.7778 93.1243 46.8333 93.1243 46.8611C93.1243 46.8889 93.1243 46.9167 93.0965 46.9445C93.0965 46.9722 93.0687 46.9722 93.0687 47C93.0687 47 93.041 47.0278 93.0132 47.0278H91.5687V48.7778C91.5687 48.8056 91.5687 48.8056 91.5687 48.8333C91.5687 48.8611 91.541 48.8611 91.5132 48.8611C91.4854 48.8611 91.4576 48.8889 91.4298 48.8889C91.4021 48.8889 91.3465 48.8889 91.291 48.8889C91.2354 48.8889 91.2076 48.8889 91.1521 48.8889C91.1243 48.8889 91.0965 48.8889 91.0687 48.8611C91.041 48.8611 91.041 48.8333 91.0132 48.8333C91.0132 48.8056 91.0132 48.8056 91.0132 48.7778V44.9167C91.0132 44.8333 91.041 44.7778 91.0687 44.75C91.1243 44.7222 91.1521 44.6945 91.2076 44.6945H93.0965C93.1243 44.6945 93.1243 44.6945 93.1521 44.6945C93.1798 44.6945 93.1798 44.7222 93.1798 44.75C93.1798 44.7778 93.2076 44.8056 93.2076 44.8333C93.2076 44.8056 93.2076 44.8611 93.2076 44.8889Z" fill="#585858"/>
<path d="M96.5969 47.25C96.5969 47.5 96.5691 47.6944 96.5135 47.9166C96.458 48.1111 96.3469 48.2777 96.2358 48.4444C96.1247 48.5833 95.958 48.6944 95.7636 48.7777C95.5691 48.8611 95.3747 48.8889 95.1247 48.8889C94.8747 48.8889 94.6802 48.8611 94.5136 48.7777C94.3469 48.6944 94.1802 48.6111 94.0691 48.4722C93.958 48.3333 93.8747 48.1666 93.7913 47.9722C93.7358 47.7777 93.708 47.5555 93.708 47.3055C93.708 47.0555 93.7358 46.8611 93.7913 46.6388C93.8469 46.4444 93.958 46.2777 94.0691 46.1111C94.1802 45.9444 94.3469 45.8611 94.5413 45.7777C94.7358 45.6944 94.9302 45.6666 95.1802 45.6666C95.4302 45.6666 95.6247 45.6944 95.7913 45.7777C95.958 45.8611 96.1247 45.9444 96.2358 46.0833C96.3469 46.2222 96.4302 46.3888 96.5135 46.5833C96.5691 46.8055 96.5969 47.0277 96.5969 47.25ZM96.0413 47.3055C96.0413 47.1389 96.0136 47 95.9858 46.8611C95.958 46.7222 95.9024 46.6111 95.8469 46.5C95.7913 46.3888 95.6802 46.3055 95.5691 46.25C95.458 46.1944 95.3191 46.1666 95.1524 46.1666C94.9858 46.1666 94.8469 46.1944 94.7358 46.25C94.6247 46.3055 94.5413 46.3888 94.458 46.5C94.3747 46.6111 94.3191 46.7222 94.2913 46.8611C94.2636 47 94.2358 47.1666 94.2358 47.3055C94.2358 47.4722 94.2636 47.6111 94.2913 47.75C94.3191 47.8888 94.3747 48 94.4302 48.1111C94.4858 48.2222 94.5969 48.3055 94.708 48.3611C94.8191 48.4166 94.958 48.4444 95.1247 48.4444C95.2913 48.4444 95.4024 48.4166 95.5413 48.3611C95.6524 48.3055 95.7635 48.2222 95.8191 48.1389C95.9024 48.0277 95.958 47.9166 95.9858 47.7777C96.0413 47.6111 96.0413 47.4722 96.0413 47.3055Z" fill="#585858"/>
<path d="M99.0968 46.0278C99.0968 46.0833 99.0968 46.1111 99.0968 46.1389C99.0968 46.1667 99.0968 46.1945 99.0968 46.2222C99.0968 46.25 99.069 46.25 99.069 46.25L99.0412 46.2778C99.0135 46.2778 99.0135 46.2778 98.9857 46.25C98.9579 46.25 98.9301 46.2222 98.9023 46.2222C98.8746 46.2222 98.8468 46.1945 98.7912 46.1945C98.7635 46.1945 98.7079 46.1945 98.6523 46.1945C98.5968 46.1945 98.5412 46.1945 98.4857 46.2222C98.4301 46.25 98.3746 46.2778 98.319 46.3333C98.2635 46.3889 98.2079 46.4445 98.1523 46.5278C98.0968 46.6111 98.0135 46.7222 97.9579 46.8334V48.75C97.9579 48.7778 97.9579 48.7778 97.9579 48.8056C97.9579 48.8056 97.9301 48.8334 97.9023 48.8334C97.8746 48.8334 97.8468 48.8611 97.819 48.8611C97.7912 48.8611 97.7357 48.8611 97.6801 48.8611C97.6246 48.8611 97.5968 48.8611 97.5412 48.8611C97.5135 48.8611 97.4857 48.8611 97.4579 48.8334C97.4301 48.8334 97.4301 48.8056 97.4023 48.8056C97.4023 48.8056 97.4023 48.7778 97.4023 48.75V45.8333C97.4023 45.8056 97.4023 45.8056 97.4023 45.7778L97.4301 45.75C97.4579 45.75 97.4857 45.7222 97.5135 45.7222C97.5412 45.7222 97.5968 45.7222 97.6246 45.7222C97.6801 45.7222 97.7079 45.7222 97.7357 45.7222C97.7635 45.7222 97.7912 45.7222 97.819 45.75C97.8468 45.75 97.8468 45.7778 97.8468 45.7778C97.8468 45.7778 97.8468 45.8056 97.8468 45.8333V46.25C97.9301 46.1389 98.0135 46.0278 98.069 45.9722C98.1523 45.8889 98.2079 45.8333 98.2635 45.8056C98.319 45.75 98.3746 45.7222 98.4579 45.7222C98.5135 45.6945 98.569 45.6945 98.6523 45.6945C98.6801 45.6945 98.7079 45.6945 98.7357 45.6945C98.7635 45.6945 98.819 45.6945 98.8468 45.7222C98.8746 45.7222 98.9301 45.75 98.9579 45.75C98.9857 45.75 99.0135 45.7778 99.0135 45.7778L99.0412 45.8056V45.8333C99.0412 45.8611 99.0412 45.8611 99.0412 45.8889C99.069 45.9445 99.0968 45.9722 99.0968 46.0278Z" fill="#585858"/>
<path d="M103.486 47.6667C103.486 47.8612 103.458 48.0278 103.375 48.1945C103.291 48.3612 103.208 48.4723 103.069 48.5834C102.93 48.6945 102.791 48.7778 102.625 48.8334C102.458 48.8889 102.263 48.9167 102.069 48.9167C101.93 48.9167 101.791 48.9167 101.68 48.8889C101.569 48.8612 101.458 48.8334 101.347 48.8056C101.263 48.7778 101.18 48.7223 101.125 48.6945C101.069 48.6667 101.013 48.6389 100.986 48.6112C100.958 48.5834 100.93 48.5556 100.93 48.5C100.93 48.4723 100.902 48.4167 100.902 48.3334C100.902 48.2778 100.902 48.25 100.902 48.2223C100.902 48.1945 100.902 48.1667 100.93 48.1389C100.93 48.1112 100.958 48.1112 100.958 48.1112C100.958 48.1112 100.986 48.1112 101.013 48.1112C101.041 48.1112 101.097 48.1389 101.152 48.1667C101.208 48.1945 101.291 48.25 101.375 48.2778C101.458 48.3334 101.569 48.3612 101.68 48.3889C101.791 48.4167 101.93 48.4445 102.097 48.4445C102.208 48.4445 102.319 48.4167 102.43 48.3889C102.541 48.3612 102.625 48.3056 102.68 48.25C102.763 48.1945 102.819 48.1112 102.847 48.0278C102.875 47.9445 102.902 47.8334 102.902 47.7223C102.902 47.6112 102.875 47.5 102.819 47.4167C102.763 47.3334 102.708 47.25 102.597 47.1945C102.513 47.1389 102.402 47.0834 102.291 47.0278C102.18 46.9723 102.069 46.9167 101.958 46.8612C101.847 46.8056 101.736 46.75 101.625 46.6667C101.513 46.6112 101.402 46.5278 101.319 46.4445C101.236 46.3612 101.152 46.25 101.097 46.1389C101.041 46.0278 101.013 45.8612 101.013 45.6945C101.013 45.5278 101.041 45.3612 101.097 45.2223C101.152 45.0834 101.236 44.9723 101.375 44.8889C101.486 44.8056 101.625 44.7223 101.791 44.6667C101.958 44.6112 102.125 44.5834 102.291 44.5834C102.375 44.5834 102.486 44.5834 102.569 44.6112C102.652 44.6389 102.763 44.6389 102.847 44.6667C102.93 44.6945 103.013 44.7223 103.069 44.75C103.125 44.7778 103.18 44.8056 103.208 44.8334C103.236 44.8612 103.236 44.8612 103.236 44.8889C103.236 44.8889 103.236 44.9167 103.263 44.9445C103.263 44.9723 103.263 44.9723 103.263 45C103.263 45.0278 103.263 45.0556 103.263 45.1112C103.263 45.1389 103.263 45.1945 103.263 45.2223C103.263 45.25 103.263 45.2778 103.236 45.3056C103.236 45.3334 103.208 45.3334 103.208 45.3612L103.18 45.3889C103.152 45.3889 103.125 45.3612 103.069 45.3334C103.013 45.3056 102.958 45.2778 102.875 45.2223C102.791 45.1945 102.708 45.1389 102.625 45.1112C102.513 45.0834 102.402 45.0556 102.291 45.0556C102.18 45.0556 102.069 45.0834 101.986 45.1112C101.902 45.1389 101.819 45.1945 101.763 45.2223C101.708 45.2778 101.652 45.3334 101.625 45.4167C101.597 45.5 101.569 45.5556 101.569 45.6389C101.569 45.75 101.597 45.8612 101.652 45.9445C101.708 46.0278 101.791 46.1112 101.875 46.1667C101.958 46.2223 102.069 46.2778 102.18 46.3334C102.291 46.3889 102.402 46.4445 102.541 46.5C102.652 46.5556 102.763 46.6112 102.902 46.6667C103.013 46.7223 103.125 46.8056 103.208 46.8889C103.291 46.9723 103.375 47.0834 103.43 47.1945C103.458 47.3334 103.486 47.5 103.486 47.6667Z" fill="#585858"/>
<path d="M106.402 48.75C106.402 48.7778 106.402 48.8056 106.374 48.8056C106.346 48.8056 106.346 48.8333 106.291 48.8333C106.235 48.8333 106.208 48.8333 106.152 48.8333C106.096 48.8333 106.041 48.8333 106.013 48.8333C105.985 48.8333 105.958 48.8056 105.93 48.8056C105.902 48.8056 105.902 48.7778 105.902 48.75V48.4722C105.763 48.6111 105.624 48.7222 105.485 48.7778C105.319 48.8611 105.152 48.8889 104.985 48.8889C104.846 48.8889 104.708 48.8611 104.569 48.8333C104.458 48.8056 104.346 48.7222 104.263 48.6667C104.18 48.5833 104.096 48.5 104.069 48.3889C104.013 48.2778 103.985 48.1667 103.985 48.0278C103.985 47.8611 104.013 47.7222 104.096 47.6111C104.152 47.5 104.263 47.3889 104.374 47.3056C104.485 47.2222 104.652 47.1667 104.819 47.1389C104.985 47.1111 105.208 47.0833 105.43 47.0833H105.819V46.8611C105.819 46.75 105.819 46.6389 105.791 46.5556C105.763 46.4722 105.735 46.3889 105.68 46.3333C105.624 46.2778 105.569 46.2222 105.485 46.1944C105.402 46.1667 105.291 46.1389 105.18 46.1389C105.041 46.1389 104.93 46.1667 104.819 46.1944C104.708 46.2222 104.624 46.25 104.541 46.3056C104.458 46.3333 104.402 46.3889 104.346 46.4167C104.291 46.4444 104.263 46.4722 104.235 46.4722C104.208 46.4722 104.208 46.4722 104.18 46.4722L104.152 46.4444C104.152 46.4167 104.124 46.4167 104.124 46.3889C104.124 46.3611 104.124 46.3333 104.124 46.3056C104.124 46.25 104.124 46.2222 104.124 46.1667C104.124 46.1389 104.152 46.1111 104.18 46.0833C104.208 46.0556 104.263 46.0278 104.319 45.9722C104.402 45.9444 104.458 45.8889 104.569 45.8611C104.652 45.8333 104.763 45.8056 104.874 45.7778C104.985 45.75 105.096 45.75 105.208 45.75C105.43 45.75 105.596 45.7778 105.735 45.8333C105.874 45.8889 106.013 45.9444 106.096 46.0278C106.18 46.1111 106.263 46.2222 106.291 46.3611C106.319 46.5 106.346 46.6667 106.346 46.8333L106.402 48.75ZM105.874 47.4167H105.43C105.291 47.4167 105.152 47.4167 105.041 47.4444C104.93 47.4722 104.846 47.5 104.763 47.5556C104.68 47.6111 104.652 47.6667 104.596 47.7222C104.569 47.7778 104.541 47.8611 104.541 47.9444C104.541 48.0833 104.596 48.2222 104.68 48.3056C104.763 48.3889 104.902 48.4444 105.069 48.4444C105.208 48.4444 105.346 48.4167 105.458 48.3333C105.569 48.25 105.708 48.1667 105.846 48L105.874 47.4167Z" fill="#585858"/>
<path d="M109.847 45.75C109.902 45.75 109.958 45.7778 109.986 45.8055C110.014 45.8333 110.014 45.8889 110.014 45.9444V48.75C110.014 48.7778 110.014 48.7778 110.014 48.8055C110.014 48.8055 109.986 48.8333 109.958 48.8333C109.93 48.8333 109.902 48.8611 109.875 48.8611C109.847 48.8611 109.791 48.8611 109.736 48.8611C109.68 48.8611 109.625 48.8611 109.597 48.8611C109.569 48.8611 109.541 48.8611 109.514 48.8333C109.486 48.8333 109.486 48.8055 109.458 48.8055C109.458 48.8055 109.458 48.7778 109.458 48.75V46.1944H107.958V47.8055C107.958 48 107.986 48.1667 108.041 48.25C108.097 48.3611 108.208 48.4167 108.347 48.4167C108.402 48.4167 108.43 48.4167 108.486 48.3889C108.514 48.3889 108.569 48.3611 108.597 48.3611C108.625 48.3611 108.652 48.3333 108.68 48.3333C108.708 48.3333 108.708 48.3055 108.736 48.3055H108.764L108.791 48.3333C108.791 48.3611 108.791 48.3611 108.819 48.3889C108.819 48.4167 108.819 48.4444 108.819 48.4722C108.819 48.5278 108.819 48.5833 108.819 48.6111C108.819 48.6389 108.791 48.6667 108.791 48.6944C108.764 48.7222 108.736 48.7222 108.708 48.75C108.68 48.7778 108.625 48.7778 108.597 48.7778C108.541 48.7778 108.514 48.8055 108.458 48.8055C108.402 48.8055 108.347 48.8055 108.319 48.8055C108.18 48.8055 108.041 48.7778 107.93 48.75C107.819 48.7222 107.736 48.6389 107.652 48.5833C107.597 48.5 107.541 48.3889 107.514 48.2778C107.486 48.1667 107.458 48 107.458 47.8333V46.1389H107.041C107.014 46.1389 106.986 46.1111 106.958 46.0833C106.93 46.0555 106.93 46 106.93 45.9167C106.93 45.8889 106.93 45.8333 106.93 45.8055C106.93 45.7778 106.93 45.75 106.958 45.75C106.958 45.7222 106.986 45.7222 106.986 45.7222C107.014 45.7222 107.014 45.7222 107.041 45.7222H107.458V45.0278C107.458 45 107.458 45 107.458 44.9722L107.486 44.9444C107.514 44.9444 107.541 44.9167 107.569 44.9167C107.597 44.9167 107.652 44.9167 107.708 44.9167C107.764 44.9167 107.819 44.9167 107.847 44.9167C107.875 44.9167 107.902 44.9167 107.93 44.9444C107.958 44.9444 107.958 44.9722 107.986 44.9722C107.986 44.9722 107.986 45 107.986 45.0278V45.7222H109.847V45.75ZM110.069 44.8611C110.069 44.9722 110.041 45.0833 109.986 45.1111C109.93 45.1667 109.847 45.1667 109.736 45.1667C109.625 45.1667 109.514 45.1389 109.486 45.1111C109.43 45.0555 109.43 44.9722 109.43 44.8611C109.43 44.75 109.458 44.6389 109.514 44.6111C109.569 44.5555 109.652 44.5555 109.764 44.5555C109.875 44.5555 109.986 44.5833 110.014 44.6111C110.041 44.6667 110.069 44.75 110.069 44.8611Z" fill="#585858"/>
<path d="M112.819 47.9445C112.819 48.0834 112.791 48.2222 112.735 48.3334C112.68 48.4445 112.596 48.5556 112.513 48.6389C112.43 48.7222 112.291 48.7778 112.152 48.8056C112.013 48.8334 111.846 48.8611 111.68 48.8611C111.569 48.8611 111.485 48.8611 111.374 48.8334C111.291 48.8056 111.208 48.8056 111.124 48.7778C111.041 48.75 110.985 48.7222 110.93 48.6945C110.874 48.6667 110.846 48.6389 110.819 48.6111C110.791 48.5834 110.791 48.5556 110.763 48.5278C110.763 48.5 110.735 48.4445 110.735 48.3611C110.735 48.3334 110.735 48.2778 110.735 48.25C110.735 48.2222 110.735 48.1945 110.763 48.1945C110.763 48.1667 110.791 48.1667 110.791 48.1667H110.819C110.846 48.1667 110.874 48.1945 110.93 48.2222C110.985 48.25 111.041 48.2778 111.096 48.3056C111.152 48.3334 111.235 48.3611 111.346 48.3889C111.43 48.4167 111.541 48.4445 111.652 48.4445C111.735 48.4445 111.819 48.4445 111.902 48.4167C111.985 48.3889 112.041 48.3611 112.096 48.3334C112.152 48.3056 112.18 48.25 112.208 48.1945C112.235 48.1389 112.263 48.0556 112.263 48C112.263 47.9167 112.235 47.8611 112.208 47.8056C112.18 47.75 112.124 47.6945 112.041 47.6667C111.958 47.6389 111.902 47.5834 111.819 47.5556C111.735 47.5278 111.652 47.5 111.541 47.4445C111.458 47.4167 111.374 47.3611 111.263 47.3334C111.18 47.2778 111.096 47.2222 111.041 47.1667C110.985 47.1111 110.93 47.0278 110.874 46.9167C110.819 46.8333 110.819 46.7222 110.819 46.5833C110.819 46.4722 110.846 46.3611 110.874 46.25C110.93 46.1389 110.985 46.0556 111.069 45.9722C111.152 45.8889 111.263 45.8333 111.402 45.7778C111.541 45.7222 111.68 45.6945 111.874 45.6945C111.958 45.6945 112.041 45.6945 112.096 45.7222C112.18 45.7222 112.235 45.75 112.319 45.7778C112.374 45.8056 112.43 45.8056 112.485 45.8333C112.541 45.8611 112.569 45.8889 112.596 45.8889C112.624 45.9167 112.624 45.9167 112.652 45.9445C112.652 45.9445 112.652 45.9722 112.68 46C112.68 46.0278 112.68 46.0278 112.68 46.0556C112.68 46.0833 112.68 46.1111 112.68 46.1389C112.68 46.1667 112.68 46.1945 112.68 46.2222C112.68 46.25 112.68 46.2778 112.652 46.2778C112.652 46.3056 112.624 46.3056 112.624 46.3056H112.596C112.569 46.3056 112.541 46.3056 112.513 46.2778C112.485 46.25 112.43 46.2222 112.374 46.1945C112.319 46.1667 112.235 46.1389 112.18 46.1111C112.096 46.0833 112.013 46.0833 111.902 46.0833C111.819 46.0833 111.735 46.0833 111.652 46.1111C111.596 46.1389 111.513 46.1667 111.485 46.1945C111.43 46.2222 111.402 46.2778 111.374 46.3333C111.346 46.3889 111.346 46.4445 111.346 46.5C111.346 46.5833 111.374 46.6667 111.402 46.7222C111.458 46.7778 111.513 46.8333 111.569 46.8611C111.624 46.8889 111.708 46.9445 111.791 46.9722C111.874 47 111.958 47.0556 112.069 47.0834C112.152 47.1111 112.263 47.1667 112.346 47.1945C112.43 47.25 112.513 47.3056 112.596 47.3611C112.652 47.4167 112.708 47.5 112.763 47.5834C112.791 47.7222 112.819 47.8334 112.819 47.9445Z" fill="#585858"/>
<path d="M115.125 44.6389C115.125 44.6667 115.125 44.7222 115.125 44.75C115.125 44.7778 115.125 44.8056 115.097 44.8056C115.097 44.8333 115.097 44.8333 115.069 44.8333H115.041C115.013 44.8333 115.013 44.8333 114.986 44.8056C114.958 44.8056 114.93 44.7778 114.902 44.7778C114.875 44.7778 114.819 44.75 114.791 44.75C114.736 44.75 114.708 44.7222 114.625 44.7222C114.541 44.7222 114.486 44.7222 114.43 44.75C114.375 44.7778 114.319 44.8056 114.291 44.8611C114.263 44.9167 114.236 45 114.208 45.0833C114.18 45.1667 114.18 45.2778 114.18 45.3889V45.6944H114.819C114.847 45.6944 114.847 45.6944 114.875 45.6944L114.902 45.7222C114.902 45.75 114.93 45.75 114.93 45.7778C114.93 45.8056 114.93 45.8333 114.93 45.8889C114.93 45.9722 114.93 46.0278 114.902 46.0556C114.875 46.0833 114.847 46.1111 114.819 46.1111H114.208V48.6667C114.208 48.6944 114.208 48.6944 114.208 48.7222C114.208 48.7222 114.18 48.75 114.152 48.75C114.125 48.75 114.097 48.7778 114.069 48.7778C114.041 48.7778 113.986 48.7778 113.93 48.7778C113.875 48.7778 113.847 48.7778 113.791 48.7778C113.763 48.7778 113.736 48.7778 113.708 48.75C113.68 48.75 113.68 48.7222 113.652 48.7222C113.652 48.7222 113.652 48.6944 113.652 48.6667V46.1111H113.236C113.208 46.1111 113.18 46.0833 113.152 46.0556C113.125 46.0278 113.125 45.9722 113.125 45.8889C113.125 45.8611 113.125 45.8056 113.125 45.7778C113.125 45.75 113.125 45.7222 113.152 45.7222C113.152 45.6944 113.18 45.6944 113.18 45.6944C113.18 45.6944 113.208 45.6944 113.236 45.6944H113.652V45.3889C113.652 45.1944 113.68 45 113.708 44.8611C113.736 44.7222 113.791 44.5833 113.875 44.5C113.958 44.4167 114.041 44.3333 114.152 44.3056C114.263 44.25 114.402 44.25 114.569 44.25C114.652 44.25 114.708 44.25 114.791 44.2778C114.875 44.2778 114.93 44.3056 114.958 44.3333C114.986 44.3611 115.013 44.3611 115.041 44.3889C115.041 44.3889 115.069 44.4167 115.069 44.4444C115.069 44.4722 115.097 44.5 115.097 44.5278C115.125 44.5833 115.125 44.6111 115.125 44.6389Z" fill="#585858"/>
<path d="M117.597 48.75C117.597 48.7778 117.597 48.8056 117.569 48.8056C117.541 48.8056 117.541 48.8333 117.486 48.8333C117.458 48.8333 117.402 48.8333 117.347 48.8333C117.291 48.8333 117.236 48.8333 117.208 48.8333C117.18 48.8333 117.152 48.8056 117.125 48.8056C117.097 48.8056 117.097 48.7778 117.097 48.75V48.4722C116.958 48.6111 116.819 48.7222 116.68 48.7778C116.514 48.8611 116.347 48.8889 116.18 48.8889C116.041 48.8889 115.902 48.8611 115.764 48.8333C115.652 48.8056 115.541 48.7222 115.458 48.6667C115.375 48.5833 115.291 48.5 115.264 48.3889C115.208 48.2778 115.18 48.1667 115.18 48.0278C115.18 47.8611 115.208 47.7222 115.291 47.6111C115.347 47.5 115.458 47.3889 115.569 47.3056C115.68 47.2222 115.847 47.1667 116.014 47.1389C116.18 47.1111 116.402 47.0833 116.625 47.0833H117.014V46.8611C117.014 46.75 117.014 46.6389 116.986 46.5556C116.958 46.4722 116.93 46.3889 116.875 46.3333C116.819 46.2778 116.764 46.2222 116.68 46.1944C116.597 46.1667 116.486 46.1389 116.375 46.1389C116.236 46.1389 116.125 46.1667 116.014 46.1944C115.902 46.2222 115.819 46.25 115.736 46.3056C115.652 46.3333 115.597 46.3889 115.541 46.4167C115.486 46.4444 115.458 46.4722 115.43 46.4722C115.402 46.4722 115.402 46.4722 115.375 46.4722L115.347 46.4444C115.347 46.4167 115.319 46.4167 115.319 46.3889C115.319 46.3611 115.319 46.3333 115.319 46.3056C115.319 46.25 115.319 46.2222 115.319 46.1667C115.319 46.1389 115.347 46.1111 115.375 46.0833C115.402 46.0556 115.458 46.0278 115.514 45.9722C115.597 45.9444 115.652 45.8889 115.764 45.8611C115.847 45.8333 115.958 45.8056 116.069 45.7778C116.18 45.75 116.291 45.75 116.402 45.75C116.625 45.75 116.791 45.7778 116.93 45.8333C117.069 45.8889 117.208 45.9444 117.291 46.0278C117.375 46.1111 117.458 46.2222 117.486 46.3611C117.513 46.5 117.541 46.6667 117.541 46.8333L117.597 48.75ZM117.069 47.4167H116.625C116.486 47.4167 116.347 47.4167 116.236 47.4444C116.125 47.4722 116.041 47.5 115.958 47.5556C115.875 47.6111 115.847 47.6667 115.791 47.7222C115.764 47.7778 115.736 47.8611 115.736 47.9444C115.736 48.0833 115.791 48.2222 115.875 48.3056C115.958 48.3889 116.097 48.4444 116.264 48.4444C116.402 48.4444 116.541 48.4167 116.652 48.3333C116.764 48.25 116.902 48.1667 117.041 48L117.069 47.4167Z" fill="#585858"/>
<path d="M120.652 48.3055C120.652 48.3333 120.652 48.3611 120.652 48.3889C120.652 48.4167 120.652 48.4444 120.652 48.4444C120.652 48.4722 120.652 48.4722 120.624 48.5C120.624 48.5278 120.597 48.5278 120.569 48.5555C120.541 48.5833 120.486 48.6111 120.43 48.6667C120.374 48.6944 120.291 48.75 120.208 48.7778C120.124 48.8055 120.041 48.8333 119.958 48.8611C119.874 48.8889 119.763 48.8889 119.652 48.8889C119.43 48.8889 119.263 48.8611 119.097 48.7778C118.93 48.7222 118.791 48.6111 118.68 48.4722C118.569 48.3333 118.486 48.1667 118.43 47.9722C118.374 47.7778 118.347 47.5555 118.347 47.3055C118.347 47.0278 118.374 46.7778 118.458 46.5555C118.541 46.3611 118.624 46.1944 118.736 46.0555C118.847 45.9167 119.013 45.8333 119.152 45.75C119.319 45.6944 119.486 45.6667 119.68 45.6667C119.763 45.6667 119.874 45.6667 119.958 45.6944C120.041 45.7222 120.124 45.7222 120.208 45.75C120.291 45.7778 120.347 45.8055 120.402 45.8333C120.458 45.8611 120.513 45.8889 120.513 45.9167C120.541 45.9444 120.569 45.9722 120.569 45.9722C120.569 46 120.597 46 120.597 46.0278C120.597 46.0555 120.597 46.0833 120.597 46.0833C120.597 46.1111 120.597 46.1389 120.597 46.1667C120.597 46.25 120.597 46.3055 120.569 46.3333C120.541 46.3611 120.513 46.3889 120.486 46.3889C120.458 46.3889 120.402 46.3611 120.374 46.3333C120.319 46.3055 120.291 46.25 120.208 46.2222C120.152 46.1667 120.069 46.1389 119.986 46.1111C119.902 46.0833 119.791 46.0555 119.652 46.0555C119.402 46.0555 119.208 46.1667 119.069 46.3611C118.93 46.5555 118.874 46.8333 118.874 47.2222C118.874 47.4167 118.902 47.5833 118.93 47.7222C118.958 47.8611 119.013 47.9722 119.097 48.0833C119.18 48.1944 119.263 48.25 119.347 48.3055C119.458 48.3611 119.569 48.3611 119.68 48.3611C119.791 48.3611 119.902 48.3333 120.013 48.3055C120.124 48.2778 120.18 48.2222 120.263 48.1667C120.319 48.1111 120.374 48.0833 120.43 48.0278C120.486 48 120.513 47.9722 120.541 47.9722C120.569 47.9722 120.569 47.9722 120.569 47.9722C120.569 47.9722 120.597 48 120.597 48.0278C120.597 48.0555 120.597 48.0833 120.624 48.1111C120.652 48.2222 120.652 48.25 120.652 48.3055Z" fill="#585858"/>
<path d="M123.902 45.75C123.958 45.75 124.013 45.7778 124.041 45.8055C124.069 45.8333 124.069 45.8889 124.069 45.9444V48.75C124.069 48.7778 124.069 48.7778 124.069 48.8055C124.069 48.8055 124.041 48.8333 124.013 48.8333C123.985 48.8333 123.958 48.8611 123.93 48.8611C123.902 48.8611 123.846 48.8611 123.791 48.8611C123.735 48.8611 123.68 48.8611 123.652 48.8611C123.624 48.8611 123.596 48.8611 123.569 48.8333C123.541 48.8333 123.541 48.8055 123.513 48.8055C123.513 48.8055 123.513 48.7778 123.513 48.75V46.1944H122.013V47.8055C122.013 48 122.041 48.1667 122.096 48.25C122.152 48.3611 122.263 48.4167 122.402 48.4167C122.458 48.4167 122.485 48.4167 122.541 48.3889C122.569 48.3889 122.624 48.3611 122.652 48.3611C122.68 48.3611 122.708 48.3333 122.735 48.3333C122.763 48.3333 122.763 48.3055 122.791 48.3055H122.819L122.846 48.3333C122.846 48.3611 122.846 48.3611 122.874 48.3889C122.874 48.4167 122.874 48.4444 122.874 48.4722C122.874 48.5278 122.874 48.5833 122.874 48.6111C122.874 48.6389 122.846 48.6667 122.846 48.6944C122.819 48.7222 122.791 48.7222 122.763 48.75C122.735 48.7778 122.68 48.7778 122.652 48.7778C122.596 48.7778 122.569 48.8055 122.513 48.8055C122.458 48.8055 122.402 48.8055 122.374 48.8055C122.235 48.8055 122.096 48.7778 121.985 48.75C121.874 48.7222 121.791 48.6389 121.708 48.5833C121.652 48.5 121.596 48.3889 121.569 48.2778C121.541 48.1667 121.513 48 121.513 47.8333V46.1389H121.096C121.069 46.1389 121.041 46.1111 121.013 46.0833C120.985 46.0555 120.985 46 120.985 45.9167C120.985 45.8889 120.985 45.8333 120.985 45.8055C120.985 45.7778 120.985 45.75 121.013 45.75C121.013 45.7222 121.041 45.7222 121.041 45.7222C121.041 45.7222 121.069 45.7222 121.096 45.7222H121.513V45.0278C121.513 45 121.513 45 121.513 44.9722C121.513 44.9722 121.541 44.9444 121.569 44.9444C121.596 44.9444 121.624 44.9167 121.652 44.9167C121.68 44.9167 121.735 44.9167 121.791 44.9167C121.846 44.9167 121.902 44.9167 121.93 44.9167C121.958 44.9167 121.985 44.9167 122.013 44.9444C122.041 44.9444 122.041 44.9722 122.069 44.9722C122.069 44.9722 122.069 45 122.069 45.0278V45.7222H123.902V45.75ZM124.124 44.8611C124.124 44.9722 124.096 45.0833 124.041 45.1111C123.985 45.1667 123.902 45.1667 123.791 45.1667C123.68 45.1667 123.569 45.1389 123.541 45.1111C123.485 45.0555 123.458 44.9722 123.458 44.8611C123.458 44.75 123.485 44.6389 123.541 44.6111C123.596 44.5555 123.68 44.5555 123.791 44.5555C123.902 44.5555 124.013 44.5833 124.041 44.6111C124.096 44.6667 124.124 44.75 124.124 44.8611Z" fill="#585858"/>
<path d="M127.736 47.25C127.736 47.5 127.708 47.6944 127.652 47.9167C127.597 48.1111 127.486 48.2778 127.374 48.4444C127.263 48.5833 127.097 48.6944 126.902 48.7778C126.708 48.8611 126.513 48.8889 126.263 48.8889C126.013 48.8889 125.819 48.8611 125.652 48.7778C125.486 48.6944 125.319 48.6111 125.208 48.4722C125.097 48.3333 125.013 48.1667 124.93 47.9722C124.874 47.7778 124.847 47.5555 124.847 47.3055C124.847 47.0555 124.874 46.8611 124.93 46.6389C124.986 46.4444 125.097 46.2778 125.208 46.1111C125.319 45.9444 125.486 45.8611 125.68 45.7778C125.874 45.6944 126.069 45.6667 126.319 45.6667C126.569 45.6667 126.763 45.6944 126.93 45.7778C127.097 45.8611 127.263 45.9444 127.374 46.0833C127.486 46.2222 127.569 46.3889 127.652 46.5833C127.708 46.8055 127.736 47.0278 127.736 47.25ZM127.208 47.3055C127.208 47.1389 127.18 47 127.152 46.8611C127.124 46.7222 127.069 46.6111 127.013 46.5C126.958 46.3889 126.847 46.3055 126.736 46.25C126.624 46.1944 126.486 46.1667 126.319 46.1667C126.152 46.1667 126.013 46.1944 125.902 46.25C125.791 46.3055 125.708 46.3889 125.624 46.5C125.541 46.6111 125.486 46.7222 125.458 46.8611C125.43 47 125.402 47.1667 125.402 47.3055C125.402 47.4722 125.43 47.6111 125.458 47.75C125.486 47.8889 125.541 48 125.597 48.1111C125.652 48.2222 125.763 48.3055 125.874 48.3611C125.986 48.4167 126.124 48.4444 126.291 48.4444C126.458 48.4444 126.569 48.4167 126.708 48.3611C126.819 48.3055 126.93 48.2222 126.986 48.1389C127.069 48.0278 127.124 47.9167 127.152 47.7778C127.18 47.6111 127.208 47.4722 127.208 47.3055Z" fill="#585858"/>
<path d="M131.041 48.75C131.041 48.7778 131.041 48.7778 131.041 48.8056C131.041 48.8056 131.013 48.8334 130.985 48.8334C130.958 48.8334 130.93 48.8611 130.902 48.8611C130.874 48.8611 130.819 48.8611 130.763 48.8611C130.708 48.8611 130.652 48.8611 130.624 48.8611C130.597 48.8611 130.569 48.8611 130.541 48.8334C130.513 48.8056 130.513 48.8056 130.485 48.8056C130.485 48.8056 130.485 48.7778 130.485 48.75V47.0556C130.485 46.8889 130.485 46.75 130.458 46.6667C130.43 46.5556 130.402 46.4722 130.347 46.4167C130.291 46.3333 130.235 46.2778 130.152 46.25C130.069 46.2222 129.985 46.1945 129.874 46.1945C129.735 46.1945 129.597 46.25 129.485 46.3333C129.374 46.4167 129.208 46.5556 129.069 46.75V48.7778C129.069 48.8056 129.069 48.8056 129.069 48.8334C129.069 48.8334 129.041 48.8611 129.013 48.8611C128.985 48.8611 128.958 48.8889 128.93 48.8889C128.902 48.8889 128.847 48.8889 128.791 48.8889C128.735 48.8889 128.708 48.8889 128.652 48.8889C128.624 48.8889 128.597 48.8889 128.569 48.8611C128.541 48.8611 128.541 48.8334 128.513 48.8334C128.513 48.8334 128.513 48.8056 128.513 48.7778V45.8333C128.513 45.8056 128.513 45.8056 128.513 45.7778L128.541 45.75C128.569 45.75 128.597 45.7222 128.624 45.7222C128.652 45.7222 128.708 45.7222 128.735 45.7222C128.791 45.7222 128.819 45.7222 128.847 45.7222C128.874 45.7222 128.902 45.7222 128.93 45.75C128.958 45.75 128.958 45.7778 128.958 45.7778C128.958 45.7778 128.958 45.8056 128.958 45.8333V46.2222C129.124 46.0278 129.291 45.9167 129.458 45.8333C129.624 45.75 129.791 45.6945 129.958 45.6945C130.152 45.6945 130.319 45.7222 130.458 45.8056C130.597 45.8611 130.708 45.9722 130.791 46.0556C130.874 46.1667 130.93 46.3056 130.958 46.4445C130.985 46.5833 131.013 46.7778 131.013 46.9722L131.041 48.75Z" fill="#585858"/>
<path d="M131.819 29.5555C131.819 29.5833 131.819 29.6111 131.819 29.6111C131.819 29.6388 131.819 29.6388 131.819 29.6388C131.819 29.6388 131.819 29.6666 131.791 29.6666C131.763 29.6666 131.763 29.6666 131.763 29.6666H131.097V31.75V31.7777C131.097 31.7777 131.097 31.7777 131.069 31.8055C131.069 31.8055 131.041 31.8055 131.013 31.8055C130.985 31.8055 130.958 31.8055 130.93 31.8055C130.902 31.8055 130.874 31.8055 130.847 31.8055C130.819 31.8055 130.819 31.8055 130.791 31.8055C130.791 31.8055 130.763 31.8055 130.763 31.7777V31.75V29.6666H130.097H130.069C130.069 29.6666 130.041 29.6666 130.041 29.6388C130.041 29.6111 130.041 29.6111 130.041 29.6111C130.041 29.5833 130.041 29.5833 130.041 29.5555C130.041 29.5277 130.041 29.5 130.041 29.5C130.041 29.4722 130.041 29.4722 130.041 29.4444C130.041 29.4444 130.041 29.4166 130.069 29.4166H130.097H131.763H131.791C131.791 29.4166 131.819 29.4166 131.819 29.4444C131.819 29.4444 131.819 29.4722 131.819 29.5C131.819 29.5 131.819 29.5277 131.819 29.5555Z" fill="#585858"/>
<path d="M134.763 31.75C134.763 31.7777 134.763 31.7777 134.763 31.75C134.763 31.7777 134.736 31.7777 134.736 31.8055C134.736 31.8055 134.708 31.8055 134.68 31.8055C134.652 31.8055 134.625 31.8055 134.597 31.8055C134.569 31.8055 134.541 31.8055 134.513 31.8055C134.486 31.8055 134.486 31.8055 134.458 31.8055C134.458 31.8055 134.43 31.8055 134.43 31.7777V31.75V29.6666L133.597 31.75C133.597 31.75 133.597 31.7777 133.569 31.7777C133.569 31.7777 133.541 31.7777 133.541 31.8055C133.541 31.8055 133.513 31.8055 133.486 31.8055C133.458 31.8055 133.458 31.8055 133.43 31.8055C133.402 31.8055 133.375 31.8055 133.375 31.8055C133.347 31.8055 133.347 31.8055 133.319 31.8055C133.319 31.8055 133.291 31.8055 133.291 31.7777C133.291 31.7777 133.291 31.7777 133.291 31.75L132.486 29.6666V31.75V31.7777C132.486 31.7777 132.486 31.7777 132.458 31.8055C132.458 31.8055 132.43 31.8055 132.402 31.8055C132.375 31.8055 132.347 31.8055 132.319 31.8055C132.291 31.8055 132.263 31.8055 132.236 31.8055C132.208 31.8055 132.208 31.8055 132.18 31.8055C132.18 31.8055 132.152 31.8055 132.152 31.7777V31.75V29.5555C132.152 29.5 132.152 29.4722 132.18 29.4444C132.208 29.4166 132.236 29.4166 132.263 29.4166H132.458C132.486 29.4166 132.541 29.4166 132.569 29.4166C132.597 29.4166 132.625 29.4444 132.652 29.4444C132.68 29.4722 132.68 29.4722 132.708 29.5C132.736 29.5277 132.736 29.5555 132.736 29.5833L133.43 31.3055L134.152 29.5833C134.152 29.5555 134.18 29.5277 134.208 29.5C134.236 29.4722 134.236 29.4444 134.263 29.4444C134.291 29.4166 134.291 29.4166 134.319 29.4166C134.347 29.4166 134.375 29.4166 134.402 29.4166H134.597C134.625 29.4166 134.625 29.4166 134.652 29.4166C134.68 29.4166 134.68 29.4444 134.708 29.4444C134.708 29.4444 134.736 29.4722 134.736 29.5C134.736 29.5277 134.736 29.5277 134.736 29.5555L134.763 31.75Z" fill="#585858"/>
<path d="M39.1801 22.8333L45.5968 11.7778L45.9023 11.2778H46.4857H59.2079H59.7912L60.069 11.7778L66.4857 22.7222L66.7912 23.2222L66.5135 23.75L63.3468 29.25H61.0412L64.4857 23.25L58.6523 13.3055H47.0412L41.2079 23.3333L44.7079 29.25H42.3746L39.1801 23.8611L38.9023 23.3611L39.1801 22.8333Z" fill="#0095DA"/>
<path d="M1.18007 22.8333L7.59673 11.7778L7.87451 11.2778H8.45785H21.1801H21.7634L22.0412 11.7778L28.4856 22.7222L28.7634 23.2222L28.4856 23.75L25.319 29.25H23.0134L26.4578 23.25L20.6245 13.3055H9.04118L3.20784 23.3333L6.68007 29.25H4.34673L1.18007 23.8611L0.874512 23.3611L1.18007 22.8333Z" fill="#0095DA"/>
<path d="M20.1801 11.5556L26.5967 0.5L26.9023 0H27.4578H40.2078H40.7634L41.069 0.5L47.4856 11.4444L47.7912 11.9444L47.4856 12.4444L44.3467 17.9722H42.0134L45.4578 11.9444L39.6245 2H28.0412L22.2078 12.0556L25.7078 17.9722H23.3745L20.1801 12.5833L19.8745 12.0556L20.1801 11.5556Z" fill="#0095DA"/>
<path d="M20.1801 12.5278L26.5967 23.5833L26.9023 24.0833H27.4578H40.2078H40.7634L41.069 23.5833L47.4856 12.6389L47.7912 12.1389L47.4856 11.6389L44.3467 6.11111H42.0134L45.4578 12.1389L39.6245 22.0833H28.0412L22.2078 12.0278L25.7078 6.11111H23.3745L20.1801 11.5278L19.8745 12.0278L20.1801 12.5278Z" fill="#0095DA"/>
</g>
<defs>
<clipPath id="clip0_143_651">
<rect width="133.889" height="50" fill="white" transform="translate(0.874512)"/>
</clipPath>
</defs>
</svg>
